<?xml version="1.0" encoding="utf-8"?>
<!-- Generator: Adobe Illustrator 24.3.0, SVG Export Plug-In . SVG Version: 6.00 Build 0)  -->
<svg version="1.1" id="Layer_1" xmlns="http://www.w3.org/2000/svg" xmlns:xlink="http://www.w3.org/1999/xlink" x="0px" y="0px"
	 viewBox="0 0 365.4 331.5" style="enable-background:new 0 0 365.4 331.5;" xml:space="preserve">
<style type="text/css">
	
		.st0{fill-rule:evenodd;clip-rule:evenodd;fill:url(#SVGID_1_);stroke:#000000;stroke-width:0.504;stroke-linejoin:bevel;stroke-miterlimit:2.4142;}
	.st1{fill:none;stroke:#000000;stroke-width:0.504;stroke-linejoin:bevel;stroke-miterlimit:2.4142;}
	.st2{fill-rule:evenodd;clip-rule:evenodd;fill:url(#SVGID_2_);}
	.st3{fill-rule:evenodd;clip-rule:evenodd;fill:url(#SVGID_3_);}
	
		.st4{fill-rule:evenodd;clip-rule:evenodd;fill:url(#SVGID_4_);stroke:#000000;stroke-width:0.504;stroke-linejoin:bevel;stroke-miterlimit:2.4142;}
	.st5{fill-rule:evenodd;clip-rule:evenodd;fill:url(#SVGID_5_);}
	.st6{fill-rule:evenodd;clip-rule:evenodd;fill:url(#SVGID_6_);}
	.st7{fill-rule:evenodd;clip-rule:evenodd;fill:url(#SVGID_7_);}
	
		.st8{fill-rule:evenodd;clip-rule:evenodd;fill:url(#SVGID_8_);stroke:#000000;stroke-width:0.504;stroke-linejoin:bevel;stroke-miterlimit:2.4142;}
	
		.st9{fill-rule:evenodd;clip-rule:evenodd;fill:url(#SVGID_9_);stroke:#000000;stroke-width:0.504;stroke-linejoin:bevel;stroke-miterlimit:2.4142;}
	
		.st10{fill-rule:evenodd;clip-rule:evenodd;fill:url(#SVGID_10_);stroke:#000000;stroke-width:0.504;stroke-linejoin:bevel;stroke-miterlimit:2.4142;}
	
		.st11{fill-rule:evenodd;clip-rule:evenodd;fill:url(#SVGID_11_);stroke:#000000;stroke-width:0.504;stroke-linejoin:bevel;stroke-miterlimit:2.4142;}
	
		.st12{fill-rule:evenodd;clip-rule:evenodd;fill:url(#SVGID_12_);stroke:#000000;stroke-width:0.504;stroke-linejoin:bevel;stroke-miterlimit:2.4142;}
	
		.st13{fill-rule:evenodd;clip-rule:evenodd;fill:url(#SVGID_13_);stroke:#000000;stroke-width:0.504;stroke-linejoin:bevel;stroke-miterlimit:2.4142;}
	
		.st14{fill-rule:evenodd;clip-rule:evenodd;fill:url(#SVGID_14_);stroke:#000000;stroke-width:0.504;stroke-linejoin:bevel;stroke-miterlimit:2.4142;}
	
		.st15{fill-rule:evenodd;clip-rule:evenodd;fill:url(#SVGID_15_);stroke:#000000;stroke-width:0.504;stroke-linejoin:bevel;stroke-miterlimit:2.4142;}
	
		.st16{fill-rule:evenodd;clip-rule:evenodd;fill:url(#SVGID_16_);stroke:#000000;stroke-width:0.504;stroke-linejoin:bevel;stroke-miterlimit:2.4142;}
	
		.st17{fill-rule:evenodd;clip-rule:evenodd;fill:url(#SVGID_17_);stroke:#000000;stroke-width:0.504;stroke-linejoin:bevel;stroke-miterlimit:2.4142;}
	
		.st18{fill-rule:evenodd;clip-rule:evenodd;fill:url(#SVGID_18_);stroke:#000000;stroke-width:0.504;stroke-linejoin:bevel;stroke-miterlimit:2.4142;}
	
		.st19{fill-rule:evenodd;clip-rule:evenodd;fill:url(#SVGID_19_);stroke:#000000;stroke-width:0.504;stroke-linejoin:bevel;stroke-miterlimit:2.4142;}
	
		.st20{fill-rule:evenodd;clip-rule:evenodd;fill:url(#SVGID_20_);stroke:#000000;stroke-width:0.504;stroke-linejoin:bevel;stroke-miterlimit:2.4142;}
	
		.st21{fill-rule:evenodd;clip-rule:evenodd;fill:url(#SVGID_21_);stroke:#000000;stroke-width:0.504;stroke-linejoin:bevel;stroke-miterlimit:2.4142;}
	
		.st22{fill-rule:evenodd;clip-rule:evenodd;fill:url(#SVGID_22_);stroke:#000000;stroke-width:0.504;stroke-linejoin:bevel;stroke-miterlimit:2.4142;}
	
		.st23{fill-rule:evenodd;clip-rule:evenodd;fill:url(#SVGID_23_);stroke:#000000;stroke-width:0.504;stroke-linejoin:bevel;stroke-miterlimit:2.4142;}
	
		.st24{fill-rule:evenodd;clip-rule:evenodd;fill:url(#SVGID_24_);stroke:#000000;stroke-width:0.504;stroke-linejoin:bevel;stroke-miterlimit:2.4142;}
	
		.st25{fill-rule:evenodd;clip-rule:evenodd;fill:url(#SVGID_25_);stroke:#000000;stroke-width:0.504;stroke-linejoin:bevel;stroke-miterlimit:2.4142;}
	
		.st26{fill-rule:evenodd;clip-rule:evenodd;fill:url(#SVGID_26_);stroke:#000000;stroke-width:0.504;stroke-linejoin:bevel;stroke-miterlimit:2.4142;}
	
		.st27{fill-rule:evenodd;clip-rule:evenodd;fill:url(#SVGID_27_);stroke:#000000;stroke-width:0.504;stroke-linejoin:bevel;stroke-miterlimit:2.4142;}
	
		.st28{fill-rule:evenodd;clip-rule:evenodd;fill:url(#SVGID_28_);stroke:#000000;stroke-width:0.504;stroke-linejoin:bevel;stroke-miterlimit:2.4142;}
	
		.st29{fill-rule:evenodd;clip-rule:evenodd;fill:url(#SVGID_29_);stroke:#000000;stroke-width:0.504;stroke-linejoin:bevel;stroke-miterlimit:2.4142;}
	
		.st30{fill-rule:evenodd;clip-rule:evenodd;fill:url(#SVGID_30_);stroke:#000000;stroke-width:0.504;stroke-linejoin:bevel;stroke-miterlimit:2.4142;}
	
		.st31{fill-rule:evenodd;clip-rule:evenodd;fill:url(#SVGID_31_);stroke:#000000;stroke-width:0.504;stroke-linejoin:bevel;stroke-miterlimit:2.4142;}
	
		.st32{fill-rule:evenodd;clip-rule:evenodd;fill:url(#SVGID_32_);stroke:#000000;stroke-width:0.504;stroke-linejoin:bevel;stroke-miterlimit:2.4142;}
	
		.st33{fill-rule:evenodd;clip-rule:evenodd;fill:url(#SVGID_33_);stroke:#000000;stroke-width:0.432;stroke-linejoin:bevel;stroke-miterlimit:2.4142;}
	
		.st34{fill-rule:evenodd;clip-rule:evenodd;fill:url(#SVGID_34_);stroke:#000000;stroke-width:0.432;stroke-linejoin:bevel;stroke-miterlimit:2.4142;}
	
		.st35{fill-rule:evenodd;clip-rule:evenodd;fill:url(#SVGID_35_);stroke:#000000;stroke-width:0.504;stroke-linejoin:bevel;stroke-miterlimit:2.4142;}
	
		.st36{fill-rule:evenodd;clip-rule:evenodd;fill:url(#SVGID_36_);stroke:#000000;stroke-width:0.432;stroke-linejoin:bevel;stroke-miterlimit:2.4142;}
	
		.st37{fill-rule:evenodd;clip-rule:evenodd;fill:url(#SVGID_37_);stroke:#000000;stroke-width:0.432;stroke-linejoin:bevel;stroke-miterlimit:2.4142;}
	
		.st38{fill-rule:evenodd;clip-rule:evenodd;fill:url(#SVGID_38_);stroke:#000000;stroke-width:0.504;stroke-linejoin:bevel;stroke-miterlimit:2.4142;}
	
		.st39{fill-rule:evenodd;clip-rule:evenodd;fill:url(#SVGID_39_);stroke:#000000;stroke-width:0.504;stroke-linejoin:bevel;stroke-miterlimit:2.4142;}
	
		.st40{fill-rule:evenodd;clip-rule:evenodd;fill:url(#SVGID_40_);stroke:#000000;stroke-width:0.504;stroke-linejoin:bevel;stroke-miterlimit:2.4142;}
	
		.st41{fill-rule:evenodd;clip-rule:evenodd;fill:url(#SVGID_41_);stroke:#000000;stroke-width:0.504;stroke-linejoin:bevel;stroke-miterlimit:2.4142;}
	
		.st42{fill-rule:evenodd;clip-rule:evenodd;fill:url(#SVGID_42_);stroke:#000000;stroke-width:0.504;stroke-linejoin:bevel;stroke-miterlimit:2.4142;}
	
		.st43{fill-rule:evenodd;clip-rule:evenodd;fill:url(#SVGID_43_);stroke:#000000;stroke-width:0.432;stroke-linejoin:bevel;stroke-miterlimit:2.4142;}
	
		.st44{fill-rule:evenodd;clip-rule:evenodd;fill:url(#SVGID_44_);stroke:#000000;stroke-width:0.432;stroke-linejoin:bevel;stroke-miterlimit:2.4142;}
	.st45{fill-rule:evenodd;clip-rule:evenodd;fill:url(#SVGID_45_);}
	.st46{fill-rule:evenodd;clip-rule:evenodd;fill:url(#SVGID_46_);}
	.st47{fill-rule:evenodd;clip-rule:evenodd;fill:url(#SVGID_47_);}
	.st48{fill-rule:evenodd;clip-rule:evenodd;fill:url(#SVGID_48_);}
	.st49{fill-rule:evenodd;clip-rule:evenodd;fill:url(#SVGID_49_);}
	.st50{fill-rule:evenodd;clip-rule:evenodd;fill:url(#SVGID_50_);}
	
		.st51{fill-rule:evenodd;clip-rule:evenodd;fill:url(#SVGID_51_);stroke:#000000;stroke-width:0.432;stroke-linejoin:bevel;stroke-miterlimit:2.4142;}
	
		.st52{fill-rule:evenodd;clip-rule:evenodd;fill:url(#SVGID_52_);stroke:#000000;stroke-width:0.432;stroke-linejoin:bevel;stroke-miterlimit:2.4142;}
	
		.st53{fill-rule:evenodd;clip-rule:evenodd;fill:url(#SVGID_53_);stroke:#000000;stroke-width:0.432;stroke-linejoin:bevel;stroke-miterlimit:2.4142;}
	
		.st54{fill-rule:evenodd;clip-rule:evenodd;fill:url(#SVGID_54_);stroke:#000000;stroke-width:0.432;stroke-linejoin:bevel;stroke-miterlimit:2.4142;}
	
		.st55{fill-rule:evenodd;clip-rule:evenodd;fill:url(#SVGID_55_);stroke:#000000;stroke-width:0.432;stroke-linejoin:bevel;stroke-miterlimit:2.4142;}
	
		.st56{fill-rule:evenodd;clip-rule:evenodd;fill:url(#SVGID_56_);stroke:#000000;stroke-width:0.432;stroke-linejoin:bevel;stroke-miterlimit:2.4142;}
</style>
<linearGradient id="SVGID_1_" gradientUnits="userSpaceOnUse" x1="113.743" y1="29.7275" x2="113.743" y2="147.1204" gradientTransform="matrix(-1 1.266722e-03 -1.266722e-03 -1 365.6826 333.762)">
	<stop  offset="0" style="stop-color:#FFFFFF"/>
	<stop  offset="1" style="stop-color:#FFFFFF"/>
</linearGradient>
<path class="st0" d="M222,186.8l49.2,29.1l2.8,8l-0.7,7.6l1,4.2l3.9,6.3l3.4,6.9l-0.3,3.1l-2.7,10.1l-3.9,13.6l-2.1,4.2l-3.5,4.5
	l-2.4,7.4l-2.8,6.6l-7.7,4.6l-6.9,1l-4.1-1.4l-2.5-3.1l-4.9-2l-0.7-4.2l1.4-2.8l-1-3.4l2.4-5.6l4.2-2.9l7.9-2.4l2.5-3.8l2.8-9.1
	l2-10.5l-6.2-5.9l-7.3-7l-7.6-6.9L234,223l-3.5-8.8l-3.5-7L222,186.8L222,186.8z"/>
<path class="st1" d="M249.2,281.9l-4.2,1.2l-4.6,3.1l-2,4"/>
<path class="st1" d="M253.2,287.8l-7.1,2.8l-2.2,3.9l-0.6,5"/>
<linearGradient id="SVGID_2_" gradientUnits="userSpaceOnUse" x1="115.1655" y1="85.9435" x2="115.1655" y2="140.6924" gradientTransform="matrix(-1 1.266722e-03 -1.266722e-03 -1 365.6826 333.762)">
	<stop  offset="0" style="stop-color:#E6E6E6"/>
	<stop  offset="1" style="stop-color:#FEE6A7"/>
</linearGradient>
<path class="st2" d="M226.5,201.8l1.7-8.6l43.6,21.9l0.9,8.8l-0.4,8l-0.7,2.7l-0.3,4.6l3,6.6l-0.9,2.2l-4.6-6.2l-9.3-14.2l-3.9-1.3
	l-5.6,2.6l-5.2-0.4l-3.3-1.6l-3.2-5.8l-3.1-1.8l-1.4,0.5l-1.1-2.6l-3.7-9L226.5,201.8L226.5,201.8z"/>
<linearGradient id="SVGID_3_" gradientUnits="userSpaceOnUse" x1="106.744" y1="46.5225" x2="106.744" y2="79.1225" gradientTransform="matrix(-1 1.266722e-03 -1.266722e-03 -1 365.6826 333.762)">
	<stop  offset="0" style="stop-color:#E6E6E6"/>
	<stop  offset="1" style="stop-color:#FEE6A7"/>
</linearGradient>
<path class="st3" d="M260.1,254.7l-1.5,9.7l-1.6,8.1l-2.8,7l0.1,2.6l1.4,3.2l1.8-0.1l3.4,2.3l1.7-8.5l-1-6.6l0.9-6.8l1-5.3l-1.3-3
	L260.1,254.7L260.1,254.7z"/>
<path class="st1" d="M266.7,261.2l-2.1-3.8l-4.8-3.9"/>
<linearGradient id="SVGID_4_" gradientUnits="userSpaceOnUse" x1="171.7444" y1="2.7126" x2="171.7444" y2="247.1894" gradientTransform="matrix(-1 1.266722e-03 -1.266722e-03 -1 365.6826 333.762)">
	<stop  offset="0" style="stop-color:#FFFFFF"/>
	<stop  offset="1" style="stop-color:#FFFFFF"/>
</linearGradient>
<path class="st4" d="M316.6,216.2l-7.4-14.1l-48.5-44.6L62,87l-9.8,17.6l-1.4,6.9l-3.4,15.9l-1.3,15.5l0.7,29.4l1.3,8.8l2,7.4
	l3.4,7.4l4,8.8l5.4,20.1l4.7,24.1l0,5.4L63,270.3l-2,4.1l-2,1.2l-2.7,0.7l-2.7,0l-5.4,2l-2.6,2l-2,1.4l0,2l-0.7,4.7l0,1.4L43,291
	l-0.1,2.7l0,2l0.7,1.4l1.3,1.4l2,1.2l3.3,1.4l2.8,0l0,1.3l0.7,1.4l1.3,1.3l4.7,0l7.3-0.7l4.2-2.6l3.9-2.7l2.1-2.8l2.6-5.3l2.7-8.7
	l3.9-10.1l4.1-6.1l3.4-2.7l0.7,20.1l-0.7,5.3l-0.7,2.7l-2.7,4.5l-2.7,3.6l-2,2.1l-2,0.6l-8.1,0.7l-2.7,0l-3.3,1.3l-3.1,4.4l-0.9,4.4
	l0,1.3l1.2,2l0.7,1.3l-1.2,3.3l0.7,2.4l0.4,0.4l2,2l6.7,0l0.7,2.7l1.2,1.3l9.4,0l6.7-1.3l5.3-2.7l6.1-8.8l6.6-10.1l6.1-14.3
	l-0.1-12.6l10-55.1l4.7-5.3l16.9,0.7l14.7-1.4l14.8-3.4l16.1-5.4l11.3-5.3l7.4-2.1l6.1,0l0.7-3.3l8.1,2.6l0-3.3l4,1.4l6.1,5.2l0.6-4
	l3.9,4.7l0.7-1.3l2.6-1.3l2,3.9l1.3,0.7l6.1,2.7l14.8,8.7l2.7,4.7l7.4,11.4l5.4,7.4l6.7,6l10.1,7.4l8.8,6.7l5.4,6l3.4,4.2l2,5.9
	l0,7.4l-1.3,14.1l0,2l-1.4,0.7l-4.7,1.3l-4.1,1.4l-2.6,2.7l-2.8,3.3l0,2l0.7,0.7l0.7,1.3l-2.6,6.1l0.7,1.3l1.2,2l2.8,1.3l4.7,0.7
	l2.6,0l0.7,2l2.6,1.4l2-0.7l4.7-0.7l7.4-4l5.3-4.8l1.4-2l0.7-3.4l2-27.6l0.6-24.2l-0.7-4l-0.7-2.7l-2.7-2.7l-4.2-3.9l-3.6-3.1
	l-3.7-4.4l-4-6l-4.7-9.4L316.6,216.2L316.6,216.2z"/>
<path class="st1" d="M83.9,307.9l-9.9,1.5l-3.5,1l-2.5,6.1"/>
<path class="st1" d="M88.2,313.4l-7.7,2.3l-3.1,4.7l-0.7,5.8"/>
<linearGradient id="SVGID_5_" gradientUnits="userSpaceOnUse" x1="65.568" y1="58.9295" x2="65.568" y2="114.1185" gradientTransform="matrix(-1 1.266722e-03 -1.266722e-03 -1 365.6826 333.762)">
	<stop  offset="0" style="stop-color:#E6E6E6"/>
	<stop  offset="1" style="stop-color:#FEE6A7"/>
</linearGradient>
<path class="st5" d="M274.6,220.4l3.4-0.6l6.8,5.5l1.7,1.2l5.5,13.4l4.8,5.6l19.8,16.2l4.5,0.9l2.5-0.3l2,1.2l-1.4,10.3l-0.8,1.2
	l-5.1-9l-3.8-4.7l-8.6-6.2l-16.4-13.4L274.6,220.4L274.6,220.4z"/>
<linearGradient id="SVGID_6_" gradientUnits="userSpaceOnUse" x1="40.2726" y1="73.0155" x2="40.2726" y2="104.4865" gradientTransform="matrix(-1 1.266722e-03 -1.266722e-03 -1 365.6826 333.762)">
	<stop  offset="0" style="stop-color:#E6E6E6"/>
	<stop  offset="1" style="stop-color:#FEE6A7"/>
</linearGradient>
<path class="st6" d="M314,229.3l4.7,5.3l3.8,7.3l4.2,5.9l9.6,10.1l0.4,2.8l-5.6-4.3l-9.1-9.3l-5.2-8L314,229.3L314,229.3z"/>
<path class="st1" d="M319,308.2l-6.6,3.1l-3.8,2.3l-0.5,3.1"/>
<path class="st1" d="M326.7,312.9l-7.4,4.5l-2.5,7.2l0.9,3.2"/>
<linearGradient id="SVGID_7_" gradientUnits="userSpaceOnUse" x1="38.6296" y1="21.9905" x2="38.6296" y2="50.8295" gradientTransform="matrix(-1 1.266722e-03 -1.266722e-03 -1 365.6826 333.762)">
	<stop  offset="0" style="stop-color:#E6E6E6"/>
	<stop  offset="1" style="stop-color:#FEE6A7"/>
</linearGradient>
<path class="st7" d="M324.7,283l1.5,16.9l1.7,4.3l2.4,7.7l-4.3-2l-2.1-2.3L324.7,283L324.7,283z"/>
<linearGradient id="SVGID_8_" gradientUnits="userSpaceOnUse" x1="28.9206" y1="220.6234" x2="28.9206" y2="286.1753" gradientTransform="matrix(-1 1.266722e-03 -1.266722e-03 -1 365.6826 333.762)">
	<stop  offset="0" style="stop-color:#FFFFFF"/>
	<stop  offset="1" style="stop-color:#FFFFFF"/>
</linearGradient>
<path class="st8" d="M328.1,113.2l11.5-8.3l4.6-5.3l6.6-8.7l9.3-28l-9.7-15.2l-3.1,12.3l-2.8,8.6l-5.5,8.8l-3.4,2.8l0-3.6l-7.1,10.2
	l-6.6,8l-9,8.7C312.9,103.4,328.1,113.2,328.1,113.2z"/>
<linearGradient id="SVGID_9_" gradientUnits="userSpaceOnUse" x1="179.5975" y1="135.7284" x2="179.5975" y2="200.0404" gradientTransform="matrix(-1 1.266722e-03 -1.266722e-03 -1 365.6826 333.762)">
	<stop  offset="0" style="stop-color:#665D47"/>
	<stop  offset="1" style="stop-color:#9F7959"/>
</linearGradient>
<path class="st9" d="M203.8,185.7l-47.5,12.2l-15.8,0.4l-9.8-49.4l86.6-15l23.6,53.2l-7.2-3.5l-5.6-4.6l-7.3-1.3l-4.5,0.7
	L203.8,185.7L203.8,185.7z"/>
<linearGradient id="SVGID_10_" gradientUnits="userSpaceOnUse" x1="55.2745" y1="183.2524" x2="55.2745" y2="237.4194" gradientTransform="matrix(-1 1.266722e-03 -1.266722e-03 -1 365.6826 333.762)">
	<stop  offset="0" style="stop-color:#665D47"/>
	<stop  offset="1" style="stop-color:#9F7959"/>
</linearGradient>
<path class="st10" d="M281.7,140.7l10.5,9.9l1.7-8.5l3.5-5.6l8.3-5.9l16.3-12.6l9.8-6.7l8.1-6.8l0.2-7.5l-4.2,2.8l-2.1,0l-3.1-3.5
	l-6.3,2.1l-4.2-2.1l-4.6,3.9l-7.9,5.6l-27.5,18.9l4.5,11.7L281.7,140.7L281.7,140.7z"/>
<linearGradient id="SVGID_11_" gradientUnits="userSpaceOnUse" x1="8.1901" y1="242.6704" x2="8.1901" y2="311.7273" gradientTransform="matrix(-1 1.266722e-03 -1.266722e-03 -1 365.6826 333.762)">
	<stop  offset="0" style="stop-color:#665D47"/>
	<stop  offset="1" style="stop-color:#9F7959"/>
</linearGradient>
<path class="st11" d="M349.2,52.7l3.1,2.2l0.3,8.9l1-1.3l-0.3,9.5l-2.6,10.4l0.5,2.9l-0.8,5.8l1.4-2.8l3.6-6.6l3.8-8.1l3.6-10.2
	l2.3-7l-3.4,2.2l1.1-5.8l1.1-4.9l-2.8,2.4l0-3.4l0.1-5.5l-1.2-6.8l-2.8-9.2l-2.6-3.2l-2.3,1.5l-0.9,4.4l-1-1.5l-0.8,5l-0.1,9.6
	L349.2,52.7L349.2,52.7z"/>
<linearGradient id="SVGID_12_" gradientUnits="userSpaceOnUse" x1="105.3155" y1="127.3965" x2="105.3155" y2="225.3634" gradientTransform="matrix(-1 1.266722e-03 -1.266722e-03 -1 365.6826 333.762)">
	<stop  offset="0" style="stop-color:#000000"/>
	<stop  offset="1" style="stop-color:#000000"/>
</linearGradient>
<path class="st12" d="M245.7,117.3l-22.2,22.4l-3.5,7.7l-3.4,11.2l1.4,7.3l4.5,3.7l4.8,5.2l2.7,5.9l7.7,6.9l7.4,7.4l6.6,4.5l-0.4-7
	l2.4,6.3l3.9,3.5l-0.4-6.7l4,7.4l4.7,3.1l2.8,0.5l3.9-2.3l12.7-63.3l1.1-7.2l-3.1-4.2l1-1.8l4.5,0.7l2.8-1.7l3.1-5.9l2.3-0.4
	l2.1-4.9l4.6-7l-6,4.2l-1-3.1l-3.1,4.5l-5.8,3.9l0.7-5.6l-6.6,6.7l-11.5,1.7l-12.1-0.6L245.7,117.3L245.7,117.3z"/>
<linearGradient id="SVGID_13_" gradientUnits="userSpaceOnUse" x1="88.927" y1="114.9245" x2="88.927" y2="207.8534" gradientTransform="matrix(-1 1.266722e-03 -1.266722e-03 -1 365.6826 333.762)">
	<stop  offset="0" style="stop-color:#665D47"/>
	<stop  offset="1" style="stop-color:#9F7959"/>
</linearGradient>
<path class="st13" d="M269.7,126.1l-0.7,5.2l-5.3,0l-2.7,11.6l0,10.7l-5.9,1.1l-10.4-4.1l-7,3.8l-1.1,10.8l5.3,6.5l2.5,8l3.7,5.3
	l-0.7-6.6l4.8,5.9l3.5,2l8.4-0.5l2.1,5.6l-1.4,5.3l1.8,4.9l2,4.8l4.2,1.4l8.7,1.1l2.8,4.8l9.7,2.5l8.7-0.4l8.7,3.1l5-2.3l-2.9-11.9
	l-4.9-9.4l0-7.7l-2.4-16l-3.5-10.7l-7-10.8l-7.2-8.4l-5.8-5.5l-9.5-6L269.7,126.1L269.7,126.1z"/>
<linearGradient id="SVGID_14_" gradientUnits="userSpaceOnUse" x1="180.1414" y1="131.4994" x2="180.1414" y2="228.5834" gradientTransform="matrix(-1 1.266722e-03 -1.266722e-03 -1 365.6826 333.762)">
	<stop  offset="0" style="stop-color:#000000"/>
	<stop  offset="1" style="stop-color:#000000"/>
</linearGradient>
<path class="st14" d="M125.4,105.5l-6.1,5.5l7.5,86.7l8.6,3.6l5.8,1.2l6.6-0.3l6.6-0.7l8.8-2.5l7.5-2.5l6.4-1.5l5.3,0l2.6,1.3
	l0.6,1.9l-3.1,0.5l4,1.4l2.4,1.3l4.3-0.2l4-4.3l4.2-6.4l3.1-2.1l2.5-4.2l8.2-5.4l-6.3,1.4l-5.6,0.4l-1.2-0.6l-3.6-0.4l-6.3,2.4
	l-15.9,6.3l-3.6,0.4l-4.3,0l-11.2,4.5l-3.1,0.6l-1.3-2l0-2.9l-1.8-2.6l-2.9-1.7l-3.4-2.4l-1.6-4.6l-1.3-7.2l-1.2-7.7l-1.8-4.2
	l-2.1-2l-0.1-2.8l4.5-0.5l2.8,1.3l2.6,4.2l3.9,1.4l3.1-1.4l2.1-2.4l4.4,0l4.3,2l2.9,4.1l-0.4,4l1,2l3.1,0.3l3.6-1.3l3.2,0.7l2.6,5
	l4.2,1.2l5.9,0l1.8-1.2l2-2.7l2.9-1.6l9.7-2l3.9-2.1l0.4-3.3l-1.2-3l-3.8-2.8l-1.3-1.6l-0.4-3.7l-4.7-6.1l-1.8-2.3l1.8-1.3l4.5-0.9
	l5-0.4l8.5,4.2l1.8,3.3l1,5.1l30.5-33.4l-8.9-2L213,110l-15.6-1.9l-14.2-0.1l-23.5,2.6l-6.4,0.4l-6.1-0.9l-5-0.7l-9.3-1.6
	L125.4,105.5L125.4,105.5z"/>
<linearGradient id="SVGID_15_" gradientUnits="userSpaceOnUse" x1="254.6754" y1="33.9615" x2="254.6754" y2="230.8444" gradientTransform="matrix(-1 1.266722e-03 -1.266722e-03 -1 365.6826 333.762)">
	<stop  offset="0" style="stop-color:#665D47"/>
	<stop  offset="1" style="stop-color:#9F7959"/>
</linearGradient>
<path class="st15" d="M86.6,128.9l38.6-25.7l3.4,7.4l3.1,5.5l1.1,8.4l2.1,6.6l-3.9,2.4l-5.2,4.6l0,11.1l3.8,6.3l-1.1,8l0.4,9.3
	l3.4,9.8l1.8,6.5l-2.8,12l1,12.8l0.8,5.6l-4.2,13.6l-2.8,16l-3.4,15.3l-2,15l-2.1,13.5l-4.8,7l0-8.3l-1.8-5.6l-5-3.8l-1.4-6.9
	l0.4-5.6l-2.9-5.5l1.4-8l0-6l3.2-5.9l0.9-7.3l1.7-3.8l8.7-6.3l1.7-6.3l-8.6-4.9l-8-5.9l-2.5-16.1l2.2-5.9l7.5-1.8l3.2-11.8l-1.5-8.4
	l-5.3-2.6l0.7-7.4l-1-3.5L95,147.9l-6-3l-1.7-8.8L86.6,128.9L86.6,128.9z"/>
<linearGradient id="SVGID_16_" gradientUnits="userSpaceOnUse" x1="337.9683" y1="226.3894" x2="337.9683" y2="248.5824" gradientTransform="matrix(-1 1.266722e-03 -1.266722e-03 -1 365.6826 333.762)">
	<stop  offset="0" style="stop-color:#FFFFFF"/>
	<stop  offset="1" style="stop-color:#FFFFFF"/>
</linearGradient>
<path class="st16" d="M16.9,94.6l1.3-9l19.7,11.8l-3.3,10.4l-5.8-1.8l-10.3-8.4L16.9,94.6L16.9,94.6z"/>
<linearGradient id="SVGID_17_" gradientUnits="userSpaceOnUse" x1="313.7988" y1="271.0663" x2="313.7988" y2="331.9473" gradientTransform="matrix(-1 1.266722e-03 -1.266722e-03 -1 365.6826 333.762)">
	<stop  offset="0" style="stop-color:#000000"/>
	<stop  offset="1" style="stop-color:#000000"/>
</linearGradient>
<path class="st17" d="M70.3,5l3.2,1.5L30.8,63.1l-1.3-16.4l3-14.9l0.6-10.1l0.9-5.7l3.1-4l3.9-3.7l-2.6-2.4l3.1,0.7l3.2-0.7
	l-1.2-1.2l-1.8-2.5l3.3,1.5l4.7,0.4l7.8-0.6L70.3,5L70.3,5z"/>
<linearGradient id="SVGID_18_" gradientUnits="userSpaceOnUse" x1="285.7023" y1="211.4954" x2="285.7023" y2="290.8463" gradientTransform="matrix(-1 1.266722e-03 -1.266722e-03 -1 365.6826 333.762)">
	<stop  offset="0" style="stop-color:#665D47"/>
	<stop  offset="1" style="stop-color:#9F7959"/>
</linearGradient>
<path class="st18" d="M36,108.4l12.9-40.2l28.2-24.9l46.2,18.6l-50.5,60.7l0.8-14.3l2.8-6.3l2.8-3.1l-3-4.4L68,96.7l-9.7,7.3
	l-10.8,4.6L36,108.4L36,108.4z"/>
<linearGradient id="SVGID_19_" gradientUnits="userSpaceOnUse" x1="334.2423" y1="269.7523" x2="334.2423" y2="303.5523" gradientTransform="matrix(-1 1.266722e-03 -1.266722e-03 -1 365.6826 333.762)">
	<stop  offset="0" style="stop-color:#DEAB62"/>
	<stop  offset="1" style="stop-color:#7E5F39"/>
</linearGradient>
<path class="st19" d="M31.7,64.4l0.4-3.9l-1.1-3.5l0.4-8.4l0.3-4.8l3.2-5.6l-1.8-7.7l-3.2,7.7l-2.7,11.1l0.7,8L31.7,64.4L31.7,64.4z
	"/>
<linearGradient id="SVGID_20_" gradientUnits="userSpaceOnUse" x1="310.1959" y1="265.5913" x2="310.1959" y2="324.5763" gradientTransform="matrix(-1 1.266722e-03 -1.266722e-03 -1 365.6826 333.762)">
	<stop  offset="0" style="stop-color:#665D47"/>
	<stop  offset="1" style="stop-color:#9F7959"/>
</linearGradient>
<path class="st20" d="M33.5,67.1l9,1.4l31.7-24.1l2.5-9.1L61.6,9.6L56,10l2.1,3.5L53.6,18l-9.3,12.6l-3.8,11.5l-1.4,6.3l-4.5,8.7
	L33.5,67.1L33.5,67.1z"/>
<linearGradient id="SVGID_21_" gradientUnits="userSpaceOnUse" x1="335.0188" y1="230.3334" x2="335.0188" y2="265.9553" gradientTransform="matrix(-1 1.266722e-03 -1.266722e-03 -1 365.6826 333.762)">
	<stop  offset="0" style="stop-color:#000000"/>
	<stop  offset="1" style="stop-color:#000000"/>
</linearGradient>
<path class="st21" d="M14.5,82.2l9.7-14l16.1,2l5.9,14.4l-5.6,19.2L29,103.8l-2-4.5l-2.9-5.2l-4.7,0l-4.5-4.2L14.5,82.2L14.5,82.2z"
	/>
<linearGradient id="SVGID_22_" gradientUnits="userSpaceOnUse" x1="262.1538" y1="199.2344" x2="262.1538" y2="294.8633" gradientTransform="matrix(-1 1.266722e-03 -1.266722e-03 -1 365.6826 333.762)">
	<stop  offset="0" style="stop-color:#000000"/>
	<stop  offset="1" style="stop-color:#000000"/>
</linearGradient>
<path class="st22" d="M107.8,62.2l10-23l4.9,13.9l4.8,6.4l5.3,3.8l-2.1,1l3.9,4.4l-3.9-1.7l1,3.5L131,78l1,7.2l3.2,2.8l-2.5,0.4
	l-1.7,9.1l-3.5,10.4l-4.5,0.7l-6.6,6.9l-2.3,1.1l-11.8,8.7l-3.3,0l-4.8,6.7l-3.1-0.4l-3.9,3.3l-5.7-1.1l-6.8-3.9l-3.1-6.9l-0.4-7.7
	l2.4-6.9l2.4,0.3l0,0.4l1.5-2.8l1.4-4.2l4.9-5.6l6.2-3.9l5.5-5.6l6.3-9l2.5-4.3l1.7-4.5L107.8,62.2L107.8,62.2z"/>
<linearGradient id="SVGID_23_" gradientUnits="userSpaceOnUse" x1="280.4063" y1="234.0564" x2="280.4063" y2="308.1513" gradientTransform="matrix(-1 1.266722e-03 -1.266722e-03 -1 365.6826 333.762)">
	<stop  offset="0" style="stop-color:#000000"/>
	<stop  offset="1" style="stop-color:#000000"/>
</linearGradient>
<path class="st23" d="M47.9,72l2.5,6.3l8-8.8l2.4,2.7l0.4,5.6l2.9,4.3L64,76.7l2.3-5.3l2,6.1l-0.4,4.1l2.6,4.6l6.2,0.9l3.7-2.1
	l4.7-5l-2.5,1.5l-6.1,2.1l-3.7-2l0.3-2.3l2,0.4l6.4,0.5l5.5-1.6l2.7-2.8l3.2,3.8l-1.5,4.3l-3.3,5.8l-5.8,2.6l-4.6,2l-5.4,1.4
	l4.7,2.3l1,2.3l3.9-3.2l3.9-3.4l4.8-5.3l6.8-8.7l3.6-6.9l1.5-5l0.9-3.9l2-2l0.2,2.2l1.4-3.2l0.4,3l14.3-9.1l0.2-5.9l-2.9-6.9
	L113.2,31l-3.7-4l-4.1-1l-8.3,3.4L70.9,48.8L60.5,59.9L47.9,72L47.9,72z"/>
<linearGradient id="SVGID_24_" gradientUnits="userSpaceOnUse" x1="294.7869" y1="273.1103" x2="294.7869" y2="333.8453" gradientTransform="matrix(-1 1.266722e-03 -1.266722e-03 -1 365.6826 333.762)">
	<stop  offset="0" style="stop-color:#000000"/>
	<stop  offset="1" style="stop-color:#000000"/>
</linearGradient>
<path class="st24" d="M92.7,29.9L102,19l-3.2-2.8l-11.6-5.8L80,8.8l-0.1-2.2L77.9,3l-0.3,4.6l-0.9-2.4l-3.5-4.9l-0.1,3L69,0.4
	l1.6,2.7l-0.1,3.8l-6.6,3.7l-3.8,1.8l3,1.5l-3.1,2.3l-8.6,9.6l-6.3,6.1l-3.1,9.9L39.3,48l3.1-6.3l1.5-3.1l3.1-6.9l1,0.4l-1.7,3.4
	l-2.2,9l-3.9,5.3L39,53.2l4.2-3.6L43,56.7l4.5,4.4l16.2-6.4L92.7,29.9L92.7,29.9z"/>
<linearGradient id="SVGID_25_" gradientUnits="userSpaceOnUse" x1="259.6749" y1="285.7383" x2="259.6749" y2="300.0483" gradientTransform="matrix(-1 1.266722e-03 -1.266722e-03 -1 365.6826 333.762)">
	<stop  offset="0" style="stop-color:#665D47"/>
	<stop  offset="1" style="stop-color:#9F7959"/>
</linearGradient>
<path class="st25" d="M101.5,34l-0.9,2.9l-2.3,1.8l2.9,1l0.4,3.7l4.1,3.5l3.9,1.4l3.5-0.6l-2.2-3.9l1.8-0.6l-3.9-1.6l-1.4-2.6
	l1.5-0.7l-3.7-3.4L101.5,34L101.5,34z"/>
<linearGradient id="SVGID_26_" gradientUnits="userSpaceOnUse" x1="280.7693" y1="263.9134" x2="280.7693" y2="282.6743" gradientTransform="matrix(-1 1.266722e-03 -1.266722e-03 -1 365.6826 333.762)">
	<stop  offset="0" style="stop-color:#E7BE70"/>
	<stop  offset="1" style="stop-color:#9F7959"/>
</linearGradient>
<path class="st26" d="M80.1,58.8l0.2-0.9l2.8,0l3.1,1.6l-1.8-2.2l-2.5-1.2l-2.6,0.3l-1.8,1.8l-3.9,2.6l-2.4-2l0.3-1.9l1.8-1.5
	l4.1-2.1l3.7-1.3l3.1-0.2l4.8-0.4L86.1,53l2.9,0.4l-2.3,0.8l3.4,3.2l3.4,0.7l4.4,2l-1.2,0.1l0.9,2.8l-1.1,2.5l0.4,2.8l-0.6,1.9
	l-1.8-0.7l-1.4-1.5L92,69l-1.5-0.7L89.2,66L87,64.2l-2.6-1.4l-1-1l-1.8-0.1l-0.9-1.8L80.1,58.8L80.1,58.8z"/>
<linearGradient id="SVGID_27_" gradientUnits="userSpaceOnUse" x1="304.6438" y1="290.0483" x2="304.6438" y2="310.2693" gradientTransform="matrix(-1 1.266722e-03 -1.266722e-03 -1 365.6826 333.762)">
	<stop  offset="0" style="stop-color:#E7BE70"/>
	<stop  offset="1" style="stop-color:#9F7959"/>
</linearGradient>
<path class="st27" d="M59,36.5l1.5-0.1l0.9-2.2l-0.5-4.8l4.2,0.7l1.3,3.9L64.2,37l-0.8-1.7L62.1,39l-1.9,2l-0.6,2l0.8,1.1l4.4-3.7
	l4-2.7l0.9-2.3l1.9-5l-1-4.8l-1.5,2l-3.5-2.8l0.7,2l-5.7-2.3L56,23.9L51.6,26l-1.8,2.3l1.7,0.7l3.6,0.9l2.6,1.9l0.8,2.1L59,36.5
	L59,36.5z"/>
<linearGradient id="SVGID_28_" gradientUnits="userSpaceOnUse" x1="302.8189" y1="224.9294" x2="302.8189" y2="317.9283" gradientTransform="matrix(-1 1.266722e-03 -1.266722e-03 -1 365.6826 333.762)">
	<stop  offset="0" style="stop-color:#FFFFFF"/>
	<stop  offset="1" style="stop-color:#FFFFFF"/>
</linearGradient>
<path class="st28" d="M30.5,105.2l-1.6-1.9l3.8,0.1l3.5-2l1,2l1.2-4.7l2.5-1.8l-2.3-1.2l2.3-1.5l1.6-2.9l0.4-4.1l-1.8-4.7l0.7-0.6
	L38.5,79l0.9-0.9L38,77.6l0.5-4.2L35.6,71l-2.8,1.5l-4,0.4l-1.9-2.1l-0.4,2.1L23,71.3l0.7,1.7l-3.3,3.1l-2.3,3.2l-1.2,2.3L16.3,84
	l-1.5-0.4l1.9,3.5l-1.9-0.2l0.7,3.7l2.6,2.1l4.7,1.5l-3.6,0.4l-6.1-0.6L12,89.4l-0.2-6.6l2.6-5.8l3.2-4.5l4.2-4.2l2.6-1.8l22.6-7
	l1.5-1.9l-0.3,2.7l3.9-3.1L51.2,59l4.3-2.3L69.2,47l10.4-9.4l7.6-6.4l7-7.9l2.2-1.8l-0.1,1.8l3-2.7l1.2-2.3l-2.1-2.1l2.9,1.1
	l4.4,3.4l3.4,3.9l4.2,6.4l-3.1-2.7l-2.8-1.3l-3.1,0.2l1.9,1.9l-5.7-0.4l-3.6,1.6l1.5,0.7l-5.2,1.9l-7.8,6l-12.8,9.4l-9.3,8.7
	l-10,10.9l1.5,0.7l-3.3,2.6l-1.4,5.1L50,81.5l2.9,3.1l-2.3-0.1l1.5,3.1L49,85.9l-0.3,3.3l-3,4.7l1,6.6l-2,3.9l0.2,3.3l2.7,0.8
	l-2.5,0.6l-4.8,0.3l-4.9-1.2L30.5,105.2L30.5,105.2z"/>
<linearGradient id="SVGID_29_" gradientUnits="userSpaceOnUse" x1="259.1248" y1="198.6464" x2="259.1248" y2="226.3464" gradientTransform="matrix(-1 1.266722e-03 -1.266722e-03 -1 365.6826 333.762)">
	<stop  offset="0" style="stop-color:#000000"/>
	<stop  offset="1" style="stop-color:#000000"/>
</linearGradient>
<path class="st29" d="M86.6,134.3l-3.7-0.9l6.6,2.1l4.7-0.2l7.6-2.3l2-1.4l3.1-3l7-5.9l6.1-3.9l4.2-2.5l1.8-1.4l3.6-6.2l-1.5-0.9
	l-2.2,5.9l-3.7,2.8l-7.1,4.1l-8.8,6.9l-3.9,3.7l-5.8,2.5l-6.1,0.7L86.6,134.3L86.6,134.3z"/>
<linearGradient id="SVGID_30_" gradientUnits="userSpaceOnUse" x1="289.3138" y1="259.3873" x2="289.3138" y2="271.5034" gradientTransform="matrix(-1 1.266722e-03 -1.266722e-03 -1 365.6826 333.762)">
	<stop  offset="0" style="stop-color:#FFFFFF"/>
	<stop  offset="1" style="stop-color:#FFFFFF"/>
</linearGradient>
<path class="st30" d="M78.4,62.8l1.5-0.1l-2,1.4l-1.4,1.2l-0.7,2.2l-0.5,1.9l0.5,2l1.2,1.9l3.2,1.6l-1.2,0l-2.5-0.5l-1.9-1.1
	l-1.2-1.5l-1.2-1.6l-0.1-1.3l-0.1-2.1l0.5-1.8l2.1-1.1l1.4-0.7L78.4,62.8L78.4,62.8z"/>
<linearGradient id="SVGID_31_" gradientUnits="userSpaceOnUse" x1="294.5294" y1="263.7663" x2="294.5294" y2="268.9503" gradientTransform="matrix(-1 1.266722e-03 -1.266722e-03 -1 365.6826 333.762)">
	<stop  offset="0" style="stop-color:#FFFFFF"/>
	<stop  offset="1" style="stop-color:#7E5F39"/>
</linearGradient>
<path class="st31" d="M71.8,65.2l0.2,0.1l-1.1,1.2l-1.2,0.9l0.7,0.7l1.2,2.3l-0.3-3.3L71.8,65.2L71.8,65.2z"/>
<linearGradient id="SVGID_32_" gradientUnits="userSpaceOnUse" x1="284.0569" y1="309.9763" x2="284.0569" y2="320.9263" gradientTransform="matrix(-1 1.266722e-03 -1.266722e-03 -1 365.6826 333.762)">
	<stop  offset="0" style="stop-color:#665D47"/>
	<stop  offset="1" style="stop-color:#9F7959"/>
</linearGradient>
<path class="st32" d="M90.1,18.9l-2.1,2.3l-0.4,3L85.2,22l-3.5,1.3l-5-2l-3.2-2.9L72.4,15l4.7,0.3l-0.4-2l3.3,2.9l2.9-0.1l-0.1-1.8
	l4.7,1.7L90.1,18.9L90.1,18.9z"/>
<linearGradient id="SVGID_33_" gradientUnits="userSpaceOnUse" x1="351.5818" y1="242.0134" x2="351.5818" y2="242.9634" gradientTransform="matrix(-1 1.266722e-03 -1.266722e-03 -1 365.6826 333.762)">
	<stop  offset="0" style="stop-color:#FFFFFF"/>
	<stop  offset="1" style="stop-color:#7F7F7F"/>
</linearGradient>
<path class="st33" d="M13.2,91.8c0-0.3,0.3-0.5,0.6-0.5c0.3,0,0.6,0.2,0.6,0.5s-0.3,0.4-0.6,0.4C13.5,92.2,13.2,92,13.2,91.8
	L13.2,91.8z"/>
<linearGradient id="SVGID_34_" gradientUnits="userSpaceOnUse" x1="349.8313" y1="255.1534" x2="349.8313" y2="255.5883" gradientTransform="matrix(-1 1.266722e-03 -1.266722e-03 -1 365.6826 333.762)">
	<stop  offset="0" style="stop-color:#FFFFFF"/>
	<stop  offset="1" style="stop-color:#7F7F7F"/>
</linearGradient>
<path class="st34" d="M15.2,78.8c0-0.1,0.1-0.2,0.3-0.2c0.1,0,0.3,0.1,0.3,0.2c0,0.1-0.1,0.2-0.3,0.2C15.4,79.1,15.2,79,15.2,78.8
	L15.2,78.8z"/>
<linearGradient id="SVGID_35_" gradientUnits="userSpaceOnUse" x1="335.0463" y1="246.9044" x2="335.0463" y2="256.1754" gradientTransform="matrix(-1 1.266722e-03 -1.266722e-03 -1 365.6826 333.762)">
	<stop  offset="0" style="stop-color:#E4B880"/>
	<stop  offset="1" style="stop-color:#7F7F7F"/>
</linearGradient>
<path class="st35" d="M22.5,78.8l2-0.7l1.6,2.2l3.6,2.8l4.1,0.3l4.5,1.7L35,87.3l-2.3-0.7l-2.3,0.3l-2.6-0.7l-3.6-2.6l-1.1-1.7
	L22.5,78.8L22.5,78.8z"/>
<linearGradient id="SVGID_36_" gradientUnits="userSpaceOnUse" x1="352.0518" y1="247.1234" x2="352.0518" y2="247.9984" gradientTransform="matrix(-1 1.266722e-03 -1.266722e-03 -1 365.6826 333.762)">
	<stop  offset="0" style="stop-color:#FFFFFF"/>
	<stop  offset="1" style="stop-color:#7F7F7F"/>
</linearGradient>
<path class="st36" d="M12.9,86.6c0-0.2,0.2-0.4,0.4-0.4c0.1,0,0.4,0.2,0.4,0.4s-0.2,0.4-0.4,0.4C13.1,87.1,12.9,86.9,12.9,86.6
	L12.9,86.6z"/>
<linearGradient id="SVGID_37_" gradientUnits="userSpaceOnUse" x1="347.6723" y1="258.3633" x2="347.6723" y2="259.0934" gradientTransform="matrix(-1 1.266722e-03 -1.266722e-03 -1 365.6826 333.762)">
	<stop  offset="0" style="stop-color:#FFFFFF"/>
	<stop  offset="1" style="stop-color:#7F7F7F"/>
</linearGradient>
<path class="st37" d="M17.3,75.5c0-0.2,0.2-0.4,0.4-0.4c0.2,0,0.4,0.1,0.4,0.4c0,0.1-0.1,0.4-0.4,0.4C17.5,75.8,17.3,75.6,17.3,75.5
	L17.3,75.5z"/>
<linearGradient id="SVGID_38_" gradientUnits="userSpaceOnUse" x1="332.3373" y1="266.2483" x2="332.3373" y2="279.5343" gradientTransform="matrix(-1 1.266722e-03 -1.266722e-03 -1 365.6826 333.762)">
	<stop  offset="0" style="stop-color:#DEAB62"/>
	<stop  offset="1" style="stop-color:#7E5F39"/>
</linearGradient>
<path class="st38" d="M43.3,54.6L35.6,57l-3,2.5l-4.7,3.7l-5.2,4.8l4.3-1.1l5.3-2.6l6.5-1.2l4.1-2.6L43.3,54.6L43.3,54.6z"/>
<linearGradient id="SVGID_39_" gradientUnits="userSpaceOnUse" x1="322.7418" y1="271.1403" x2="322.7418" y2="282.0153" gradientTransform="matrix(-1 1.266722e-03 -1.266722e-03 -1 365.6826 333.762)">
	<stop  offset="0" style="stop-color:#000000"/>
	<stop  offset="1" style="stop-color:#000000"/>
</linearGradient>
<path class="st39" d="M43.5,52.2l3.6,4.3l0,4.7l-2.9,0.6l-3.1,0.7l-3,0.6l2-1.5l2.8-1.1L43.5,52.2L43.5,52.2z"/>
<linearGradient id="SVGID_40_" gradientUnits="userSpaceOnUse" x1="326.6853" y1="275.5923" x2="326.6853" y2="281.4313" gradientTransform="matrix(-1 1.266722e-03 -1.266722e-03 -1 365.6826 333.762)">
	<stop  offset="0" style="stop-color:#665D47"/>
	<stop  offset="1" style="stop-color:#9F7959"/>
</linearGradient>
<path class="st40" d="M42.8,52.7L36.7,55l-2.3,3.6l7.8-2.5L42.8,52.7L42.8,52.7z"/>
<linearGradient id="SVGID_41_" gradientUnits="userSpaceOnUse" x1="313.3703" y1="286.3963" x2="313.3703" y2="303.6973" gradientTransform="matrix(-1 1.266722e-03 -1.266722e-03 -1 365.6826 333.762)">
	<stop  offset="0" style="stop-color:#FFFFFF"/>
	<stop  offset="1" style="stop-color:#FFFFFF"/>
</linearGradient>
<path class="st41" d="M55.6,31.6l0.3-0.4l-3.3-0.7l-2.3,0.9l-2.2,1.2l-1.3,4.2l-0.6,4.2l1.1,2.3l2.1,2.9l2.4,0.8l1.7,0.9l1.9-1
	l0.4-2.4l1.7-4.7L56.9,35l-0.6-2.3L55.6,31.6L55.6,31.6z"/>
<linearGradient id="SVGID_42_" gradientUnits="userSpaceOnUse" x1="313.1108" y1="289.0243" x2="313.1108" y2="303.9173" gradientTransform="matrix(-1 1.266722e-03 -1.266722e-03 -1 365.6826 333.762)">
	<stop  offset="0" style="stop-color:#000000"/>
	<stop  offset="1" style="stop-color:#000000"/>
</linearGradient>
<path class="st42" d="M56.7,41.8l1.4-3l-0.9-5.8l-2.7-2.7L52,30.5l-2,2.2l-1.5,2.6l-0.7,2.7l0.4,2.9l-0.9,0.4l-1.2-3.6l0,3.3
	l1.9,2.6l3,1.7l2.8-0.4L56.7,41.8L56.7,41.8z"/>
<linearGradient id="SVGID_43_" gradientUnits="userSpaceOnUse" x1="311.3998" y1="298.4413" x2="311.3998" y2="301.1423" gradientTransform="matrix(-1 1.266722e-03 -1.266722e-03 -1 365.6826 333.762)">
	<stop  offset="0" style="stop-color:#FFFFFF"/>
	<stop  offset="1" style="stop-color:#FFFFFF"/>
</linearGradient>
<path class="st43" d="M52.5,34.4c0-0.8,0.6-1.4,1.4-1.4s1.5,0.6,1.5,1.4c0,0.7-0.7,1.3-1.5,1.3C53.1,35.7,52.5,35.1,52.5,34.4
	L52.5,34.4z"/>
<linearGradient id="SVGID_44_" gradientUnits="userSpaceOnUse" x1="282.3064" y1="266.2493" x2="282.3064" y2="268.9503" gradientTransform="matrix(-1 1.266722e-03 -1.266722e-03 -1 365.6826 333.762)">
	<stop  offset="0" style="stop-color:#FFFFFF"/>
	<stop  offset="1" style="stop-color:#FFFFFF"/>
</linearGradient>
<path class="st44" d="M81.7,66.5c0-0.7,0.6-1.3,1.3-1.3c0.8,0,1.5,0.6,1.5,1.3c0,0.8-0.7,1.4-1.5,1.4C82.2,67.9,81.7,67.3,81.7,66.5
	L81.7,66.5z"/>
<path class="st1" d="M72.4,99.2l0-2.8l-0.7-2.9"/>
<path class="st1" d="M69.7,102.8l0-2.8l-0.9-4.3l-1.4-2.8"/>
<path class="st1" d="M3.6,84.4l1.5-2.1l2.1-1.4l3.6-1.5l4.3,0"/>
<path class="st1" d="M0.1,92.2L3,90.1l4.2-2.2l4.5-0.7"/>
<path class="st1" d="M4.5,97.9l0.7-2.2l2.1-1.5l5.1-2"/>
<path class="st1" d="M3.6,74.5l6.6-0.7l3.5,0l4.2,0.7"/>
<linearGradient id="SVGID_45_" gradientUnits="userSpaceOnUse" x1="291.6804" y1="85.5755" x2="291.6804" y2="145.0704" gradientTransform="matrix(-1 1.266722e-03 -1.266722e-03 -1 365.6826 333.762)">
	<stop  offset="0" style="stop-color:#E6E6E6"/>
	<stop  offset="1" style="stop-color:#FEE6A7"/>
</linearGradient>
<path class="st45" d="M60.7,190.5l-4.9-1.4l1.8,1.3l2.4,4.2l5.8,10.4l1.7,8.8l1.5,12.7l1.9,12.4l1.6,5l3.9,4.4l-1-5.2l-1.4-6.6
	l1.2-8.8l5-0.3l4.2,7.7l3.5,3.2l1.9,6.6l2.1,3.6l-1.6-30.8l-1.5-3.9l-7.3-4.3l-9.1-6.9l-5.3-6.3l-2.7-3.8L60.7,190.5L60.7,190.5z"/>
<linearGradient id="SVGID_46_" gradientUnits="userSpaceOnUse" x1="299.1334" y1="52.3545" x2="299.1334" y2="79.0015" gradientTransform="matrix(-1 1.266722e-03 -1.266722e-03 -1 365.6826 333.762)">
	<stop  offset="0" style="stop-color:#E6E6E6"/>
	<stop  offset="1" style="stop-color:#FEE6A7"/>
</linearGradient>
<path class="st46" d="M68.7,255.4l-0.6-0.2l-2.6,11.4L62,275l-2.8,1.5l4.5,2.1l4.6,3.2l2.7-13.3l2.8-7.2l-1.4-1.1l-2.5-2.7
	L68.7,255.4L68.7,255.4z"/>
<linearGradient id="SVGID_47_" gradientUnits="userSpaceOnUse" x1="269.4954" y1="42.1415" x2="269.4954" y2="118.8635" gradientTransform="matrix(-1 1.266722e-03 -1.266722e-03 -1 365.6826 333.762)">
	<stop  offset="0" style="stop-color:#E6E6E6"/>
	<stop  offset="1" style="stop-color:#FEE6A7"/>
</linearGradient>
<path class="st47" d="M93,215.2l1.9,1.5l1.3,3.9l2.9,68.3l-3.8,3.1l1.1-2.5l0.8-3.9l-3.4-65.8L93,215.2L93,215.2z"/>
<linearGradient id="SVGID_48_" gradientUnits="userSpaceOnUse" x1="275.5508" y1="22.6335" x2="275.5508" y2="33.8335" gradientTransform="matrix(-1 1.266722e-03 -1.266722e-03 -1 365.6826 333.762)">
	<stop  offset="0" style="stop-color:#E6E6E6"/>
	<stop  offset="1" style="stop-color:#FEE6A7"/>
</linearGradient>
<path class="st48" d="M85.5,302.9l-0.2,1.6l0.1,1.3l3.4,3.3l4.8,2.4l1.2-5.8l-4.8-2.8l-1.4-2.6L85.5,302.9L85.5,302.9z"/>
<path class="st1" d="M62.1,288.9l-5.9,3.1l-2.8,3.4l-0.4,5.5"/>
<path class="st1" d="M56.3,281.1l-6.5,2.2l-5.2,2.3l-1.6,5.8"/>
<path class="st1" d="M69.8,256.2l-2.1-4.9"/>
<linearGradient id="SVGID_49_" gradientUnits="userSpaceOnUse" x1="294.2488" y1="129.3045" x2="294.2488" y2="169.0164" gradientTransform="matrix(-1 1.266722e-03 -1.266722e-03 -1 365.6826 333.762)">
	<stop  offset="0" style="stop-color:#E6E6E6"/>
	<stop  offset="1" style="stop-color:#FEE6A7"/>
</linearGradient>
<path class="st49" d="M57.4,167.5l0.8-2.4l3.1,4.4l5.1,1.9l1.9,3.2l1.3,11.2l6.9,9l4.3,0.7l1.1,2.8l3.3,6.4l-3.8-1.2l-8.5-4.2
	l-5-5.5l-5-7.7l-4-8.7L57.4,167.5L57.4,167.5z"/>
<linearGradient id="SVGID_50_" gradientUnits="userSpaceOnUse" x1="308.8049" y1="173.1724" x2="308.8049" y2="216.7594" gradientTransform="matrix(-1 1.266722e-03 -1.266722e-03 -1 365.6826 333.762)">
	<stop  offset="0" style="stop-color:#E6E6E6"/>
	<stop  offset="1" style="stop-color:#FEE6A7"/>
</linearGradient>
<path class="st50" d="M52,117.4l0.2,15.2l1.5,8.6l2.7,4.7l2.2,3.3l1.9,6l3.7,4.2l-1.9,1.6l-7.8-3.9l-3.1,0.3l-1.7-1.5L49,142.4
	l0.9-12.1L52,117.4L52,117.4z"/>
<linearGradient id="SVGID_51_" gradientUnits="userSpaceOnUse" x1="322.4223" y1="231.2834" x2="322.4223" y2="232.0334" gradientTransform="matrix(-1 1.266722e-03 -1.266722e-03 -1 365.6826 333.762)">
	<stop  offset="0" style="stop-color:#FFFFFF"/>
	<stop  offset="1" style="stop-color:#7F7F7F"/>
</linearGradient>
<path class="st51" d="M42.6,102.4c0-0.1,0.2-0.3,0.4-0.3c0.1,0,0.4,0.1,0.4,0.3c0,0.2-0.2,0.4-0.4,0.4
	C42.8,102.9,42.6,102.7,42.6,102.4L42.6,102.4z"/>
<linearGradient id="SVGID_52_" gradientUnits="userSpaceOnUse" x1="319.7559" y1="228.7334" x2="319.7559" y2="229.4334" gradientTransform="matrix(-1 1.266722e-03 -1.266722e-03 -1 365.6826 333.762)">
	<stop  offset="0" style="stop-color:#FFFFFF"/>
	<stop  offset="1" style="stop-color:#7F7F7F"/>
</linearGradient>
<path class="st52" d="M45.2,105.1c0-0.2,0.2-0.4,0.4-0.4c0.2,0,0.4,0.1,0.4,0.4c0,0.1-0.2,0.4-0.4,0.4
	C45.4,105.4,45.2,105.2,45.2,105.1L45.2,105.1z"/>
<linearGradient id="SVGID_53_" gradientUnits="userSpaceOnUse" x1="318.3748" y1="233.0334" x2="318.3748" y2="233.9334" gradientTransform="matrix(-1 1.266722e-03 -1.266722e-03 -1 365.6826 333.762)">
	<stop  offset="0" style="stop-color:#FFFFFF"/>
	<stop  offset="1" style="stop-color:#7F7F7F"/>
</linearGradient>
<path class="st53" d="M46.6,100.8c0-0.2,0.1-0.5,0.4-0.5c0.2,0,0.4,0.3,0.4,0.5c0,0.1-0.1,0.4-0.4,0.4
	C46.8,101.1,46.7,100.9,46.6,100.8L46.6,100.8z"/>
<linearGradient id="SVGID_54_" gradientUnits="userSpaceOnUse" x1="320.3723" y1="226.6334" x2="320.3723" y2="227.3334" gradientTransform="matrix(-1 1.266722e-03 -1.266722e-03 -1 365.6826 333.762)">
	<stop  offset="0" style="stop-color:#FFFFFF"/>
	<stop  offset="1" style="stop-color:#7F7F7F"/>
</linearGradient>
<path class="st54" d="M44.6,107.1c0-0.1,0.2-0.3,0.4-0.3c0.2,0,0.4,0.1,0.4,0.3c0,0.3-0.1,0.4-0.4,0.4
	C44.8,107.6,44.6,107.4,44.6,107.1L44.6,107.1z"/>
<linearGradient id="SVGID_55_" gradientUnits="userSpaceOnUse" x1="325.2313" y1="227.2834" x2="325.2313" y2="227.7834" gradientTransform="matrix(-1 1.266722e-03 -1.266722e-03 -1 365.6826 333.762)">
	<stop  offset="0" style="stop-color:#FFFFFF"/>
	<stop  offset="1" style="stop-color:#7F7F7F"/>
</linearGradient>
<path class="st55" d="M39.9,106.7c0-0.2,0.1-0.3,0.3-0.3c0.1,0,0.3,0.1,0.3,0.3c0,0.1-0.1,0.2-0.3,0.2
	C40,106.9,39.9,106.8,39.9,106.7L39.9,106.7z"/>
<linearGradient id="SVGID_56_" gradientUnits="userSpaceOnUse" x1="330.0078" y1="229.8834" x2="330.0078" y2="229.9834" gradientTransform="matrix(-1 1.266722e-03 -1.266722e-03 -1 365.6826 333.762)">
	<stop  offset="0" style="stop-color:#FFFFFF"/>
	<stop  offset="1" style="stop-color:#7F7F7F"/>
</linearGradient>
<path class="st56" d="M35.3,104.2L35.3,104.2l0.2,0C35.5,104.3,35.4,104.3,35.3,104.2C35.3,104.3,35.3,104.3,35.3,104.2L35.3,104.2z
	"/>
<path class="st1" d="M63.3,109.1l-4.9-4.2l-3.6-2.8l-5.8-2.1l-4.2,0.7"/>
<path class="st1" d="M57.5,114.1l-2.1-2.8l-2-2.8l-3.6-1.5l-3.5-1.5l-3.5,0"/>
<path class="st1" d="M48.4,117l0-1.5l-0.7-5.7l-3.5-4.2"/>
<path class="st1" d="M35,116.3l2-2.1l1.5-2.8l0-3.5"/>
<path class="st1" d="M41.9,117l0.9-2.8l0-4.3l-1.5-2.8"/>
<path class="st1" d="M61.2,189.4l4.3,3.6l3.3,4.2l5.7,4.9l5.8,4.3l9.4,4.1l1.2,2.1l0.3,3l2.8,48.8"/>
</svg>
